# xmcd
#
# Track frame offsets:
# 150
# 14785
# 31348
# 54110
# 69983
# 92205
# 108358
# 124535
# 143834
# 159115
# 179989
# 201979
# 219299
# 235595
# 247304
# 265755
# 284172
#
# Disc length: 4015 seconds
#
# Revision: 1
# Processed by: cddbd v1.5.2PL0 Copyright (c) Steve Scherf et al.
# Submitted via: CedeCatalogueitor 2.6.0.6 http://personales.ya.com/cdcatalogueitor
#
DISCID=fa0fad11
DTITLE=Minus The Bear - Menos El Oso
DYEAR=1900
DGENRE=
TTITLE0=The Game Needed Me
TTITLE1=Mpmphis and 53RD
TTITLE2=Drilling
TTITLE3=The Fix
TTITLE4=El Torrente
TTITLE5=Pachuca Sunrise
TTITLE6=Michios Death Drive
TTITLE7=Hooray
TTITLE8=Fulfill The Dream
TTITLE9=The Pig War
TTITLE10=This Ain't A Surfin' Movie
TTITLE11=Fine and 2pts
TTITLE12=Let's Play Clowns
TTITLE13=Dog Park
TTITLE14=I'm Totally Not Down With Rob's Alien 
TTITLE15=Hey! Is That A Ninja Up There?
TTITLE16=Pony Up!
EXTD=
EXTT0=
EXTT1=
EXTT2=
EXTT3=
EXTT4=
EXTT5=
EXTT6=
EXTT7=
EXTT8=
EXTT9=
EXTT10=
EXTT11=
EXTT12=
EXTT13=
EXTT14=
EXTT15=
EXTT16=
PLAYORDER=
